ffmpeg version 4.4.2-0ubuntu0.22.04.1 Copyright (c) 2000-2021 the FFmpeg developers
  built with gcc 11 (Ubuntu 11.2.0-19ubuntu1)
  configuration: --prefix=/usr --extra-version=0ubuntu0.22.04.1 --toolchain=hardened --libdir=/usr/lib/x86_64-linux-gnu --incdir=/usr/include/x86_64-linux-gnu --arch=amd64 --enable-gpl --disable-stripping --enable-gnutls --enable-ladspa --enable-libaom --enable-libass --enable-libbluray --enable-libbs2b --enable-libcaca --enable-libcdio --enable-libcodec2 --enable-libdav1d --enable-libflite --enable-libfontconfig --enable-libfreetype --enable-libfribidi --enable-libgme --enable-libgsm --enable-libjack --enable-libmp3lame --enable-libmysofa --enable-libopenjpeg --enable-libopenmpt --enable-libopus --enable-libpulse --enable-librabbitmq --enable-librubberband --enable-libshine --enable-libsnappy --enable-libsoxr --enable-libspeex --enable-libsrt --enable-libssh --enable-libtheora --enable-libtwolame --enable-libvidstab --enable-libvorbis --enable-libvpx --enable-libwebp --enable-libx265 --enable-libxml2 --enable-libxvid --enable-libzimg --enable-libzmq --enable-libzvbi --enable-lv2 --enable-omx --enable-openal --enable-opencl --enable-opengl --enable-sdl2 --enable-pocketsphinx --enable-librsvg --enable-libmfx --enable-libdc1394 --enable-libdrm --enable-libiec61883 --enable-chromaprint --enable-frei0r --enable-libx264 --enable-shared
  libavutil      56. 70.100 / 56. 70.100
  libavcodec     58.134.100 / 58.134.100
  libavformat    58. 76.100 / 58. 76.100
  libavdevice    58. 13.100 / 58. 13.100
  libavfilter     7.110.100 /  7.110.100
  libswscale      5.  9.100 /  5.  9.100
  libswresample   3.  9.100 /  3.  9.100
  libpostproc    55.  9.100 / 55.  9.100
[image2pipe @ 0x55944ffc29c0] Stream #0: not enough frames to estimate rate; consider increasing probesize
Input #0, image2pipe, from 'pipe:':
  Duration: N/A, bitrate: N/A
  Stream #0:0: Video: bmp, bgr24, 1280x720, 25 fps, 25 tbr, 25 tbn, 25 tbc
Input #1, lavfi, from 'anullsrc':
  Duration: N/A, start: 0.000000, bitrate: 705 kb/s
  Stream #1:0: Audio: pcm_u8, 44100 Hz, stereo, u8, 705 kb/s
Stream mapping:
  Stream #0:0 -> #0:0 (bmp (native) -> h264 (libx264))
  Stream #1:0 -> #0:1 (pcm_u8 (native) -> aac (native))
[libx264 @ 0x55944ffcee80] using cpu capabilities: MMX2 SSE2Fast SSSE3 SSE4.2 AVX FMA3 BMI2 AVX2
[libx264 @ 0x55944ffcee80] profile High, level 3.1, 4:2:0, 8-bit
[libx264 @ 0x55944ffcee80] 264 - core 163 r3060 5db6aa6 - H.264/MPEG-4 AVC codec - Copyleft 2003-2021 - http://www.videolan.org/x264.html - options: cabac=1 ref=3 deblock=1:0:0 analyse=0x3:0x113 me=hex subme=7 psy=1 psy_rd=1.00:0.00 mixed_ref=1 me_range=16 chroma_me=1 trellis=1 8x8dct=1 cqm=0 deadzone=21,11 fast_pskip=1 chroma_qp_offset=-2 threads=12 lookahead_threads=2 sliced_threads=0 nr=0 decimate=1 interlaced=0 bluray_compat=0 constrained_intra=0 bframes=3 b_pyramid=2 b_adapt=1 b_bias=0 direct=1 weightb=1 open_gop=0 weightp=2 keyint=50 keyint_min=5 scenecut=40 intra_refresh=0 rc_lookahead=40 rc=abr mbtree=1 bitrate=2000 ratetol=1.0 qcomp=0.60 qpmin=0 qpmax=69 qpstep=4 vbv_maxrate=4500 vbv_bufsize=4000 nal_hrd=none filler=0 ip_ratio=1.40 aq=1:1.00
Output #0, flv, to 'rtmp://b.rtmp.youtube.com/live2?backup=1/rmu6-z8dm-sp75-y0fc-as0t':
  Metadata:
    encoder         : Lavf58.76.100
  Stream #0:0: Video: h264 ([7][0][0][0] / 0x0007), yuv420p(tv, progressive), 1280x720, q=2-31, 2000 kb/s, 25 fps, 1k tbn
    Metadata:
      encoder         : Lavc58.134.100 libx264
    Side data:
      cpb: bitrate max/min/avg: 4500000/0/2000000 buffer size: 4000000 vbv_delay: N/A
  Stream #0:1: Audio: aac (LC) ([10][0][0][0] / 0x000A), 44100 Hz, stereo, fltp, 128 kb/s
    Metadata:
      encoder         : Lavc58.134.100 aac
frame=    1 fps=0.0 q=0.0 size=       0kB time=00:00:00.00 bitrate=N/A speed=   0x    frame=   11 fps=0.0 q=0.0 size=       0kB time=00:00:00.00 bitrate=N/A speed=   0x    frame=   20 fps= 19 q=0.0 size=       0kB time=00:00:00.00 bitrate=N/A speed=   0x    frame=   29 fps= 19 q=0.0 size=       0kB time=00:00:00.00 bitrate=N/A speed=   0x    frame=   37 fps= 18 q=0.0 size=       0kB time=00:00:00.00 bitrate=N/A speed=   0x    frame=   46 fps= 18 q=0.0 size=       0kB time=00:00:00.00 bitrate=N/A speed=   0x    frame=   54 fps= 18 q=0.0 size=       0kB time=00:00:00.00 bitrate=N/A speed=   0x    frame=   63 fps= 18 q=11.0 size=       2kB time=00:00:00.16 bitrate=  96.3kbits/s speed=0.0459x    frame=   72 fps= 18 q=3.0 size=       3kB time=00:00:00.52 bitrate=  42.8kbits/s speed=0.128x    frame=   81 fps= 18 q=0.0 size=       4kB time=00:00:00.88 bitrate=  34.0kbits/s speed=0.193x    frame=   90 fps= 18 q=0.0 size=       5kB time=00:00:01.25 bitrate=  29.8kbits/s speed=0.247x    frame=   99 fps= 18 q=0.0 size=       5kB time=00:00:01.60 bitrate=  27.8kbits/s speed=0.287x    frame=  107 fps= 18 q=0.0 size=       6kB time=00:00:01.92 bitrate=  26.2kbits/s speed=0.316x    frame=  115 fps= 17 q=0.0 size=       7kB time=00:00:02.25 bitrate=  26.1kbits/s speed=0.342x    frame=  123 fps= 17 q=0.0 size=       8kB time=00:00:02.57 bitrate=  25.3kbits/s speed=0.364x    frame=  133 fps= 18 q=0.0 size=       9kB time=00:00:02.97 bitrate=  24.7kbits/s speed=0.391x    frame=  142 fps= 18 q=0.0 size=      10kB time=00:00:03.32 bitrate=  24.2kbits/s speed=0.41x    frame=  151 fps= 18 q=0.0 size=      11kB time=00:00:03.68 bitrate=  23.7kbits/s speed=0.428x    frame=  160 fps= 18 q=0.0 size=      12kB time=00:00:04.04 bitrate=  23.8kbits/s speed=0.443x    frame=  170 fps= 18 q=0.0 size=      13kB time=00:00:04.44 bitrate=  23.4kbits/s speed=0.462x    frame=  178 fps= 18 q=0.0 size=      14kB time=00:00:04.76 bitrate=  23.3kbits/s speed=0.47x    frame=  186 fps= 17 q=0.0 size=      14kB time=00:00:05.08 bitrate=  23.0kbits/s speed=0.478x    frame=  193 fps= 17 q=0.0 size=      15kB time=00:00:05.36 bitrate=  22.9kbits/s speed=0.481x    frame=  203 fps= 17 q=0.0 size=      16kB time=00:00:05.76 bitrate=  22.6kbits/s speed=0.495x    frame=  212 fps= 17 q=0.0 size=      17kB time=00:00:06.13 bitrate=  22.8kbits/s speed=0.504x    frame=  222 fps= 18 q=0.0 size=      18kB time=00:00:06.52 bitrate=  22.6kbits/s speed=0.516x    frame=  232 fps= 18 q=0.0 size=      19kB time=00:00:06.92 bitrate=  22.4kbits/s speed=0.526x    frame=  240 fps= 18 q=0.0 size=      20kB time=00:00:07.24 bitrate=  22.3kbits/s speed=0.53x    frame=  248 fps= 17 q=0.0 size=      21kB time=00:00:07.57 bitrate=  22.3kbits/s speed=0.534x    frame=  257 fps= 18 q=0.0 size=      22kB time=00:00:07.94 bitrate=  22.3kbits/s speed=0.541x    frame=  266 fps= 18 q=0.0 size=      23kB time=00:00:08.29 bitrate=  22.2kbits/s speed=0.546x    frame=  274 fps= 17 q=0.0 size=      23kB time=00:00:08.61 bitrate=  22.2kbits/s speed=0.549x    frame=  283 fps= 17 q=0.0 size=      24kB time=00:00:08.96 bitrate=  22.1kbits/s speed=0.554x    frame=  293 fps= 18 q=0.0 size=      25kB time=00:00:09.36 bitrate=  22.0kbits/s speed=0.561x    frame=  302 fps= 18 q=0.0 size=      26kB time=00:00:09.72 bitrate=  21.9kbits/s speed=0.565x    frame=  310 fps= 18 q=0.0 size=      27kB time=00:00:10.05 bitrate=  22.0kbits/s speed=0.568x    frame=  320 fps= 18 q=0.0 size=      28kB time=00:00:10.44 bitrate=  21.9kbits/s speed=0.574x    frame=  329 fps= 18 q=0.0 size=      29kB time=00:00:10.82 bitrate=  21.9kbits/s speed=0.578x    frame=  338 fps= 18 q=0.0 size=      30kB time=00:00:11.16 bitrate=  21.8kbits/s speed=0.582x    frame=  348 fps= 18 q=0.0 size=      31kB time=00:00:11.56 bitrate=  21.7kbits/s speed=0.587x    frame=  356 fps= 18 q=0.0 size=      32kB time=00:00:11.88 bitrate=  21.7kbits/s speed=0.588x    frame=  363 fps= 18 q=0.0 size=      32kB time=00:00:12.16 bitrate=  21.8kbits/s speed=0.587x    frame=  371 fps= 17 q=0.0 size=      33kB time=00:00:12.49 bitrate=  21.8kbits/s speed=0.589x    frame=  379 fps= 17 q=0.0 size=      34kB time=00:00:12.80 bitrate=  21.7kbits/s speed=0.589x    frame=  388 fps= 17 q=0.0 size=      35kB time=00:00:13.16 bitrate=  21.7kbits/s speed=0.592x    frame=  398 fps= 18 q=0.0 size=      36kB time=00:00:13.56 bitrate=  21.6kbits/s speed=0.596x    frame=  406 fps= 17 q=0.0 size=      37kB time=00:00:13.88 bitrate=  21.6kbits/s speed=0.597x    frame=  414 fps= 17 q=0.0 size=      38kB time=00:00:14.21 bitrate=  21.7kbits/s speed=0.598x    frame=  423 fps= 17 q=0.0 size=      39kB time=00:00:14.58 bitrate=  21.6kbits/s speed=0.601x    frame=  433 fps= 17 q=0.0 size=      39kB time=00:00:14.96 bitrate=  21.6kbits/s speed=0.604x    frame=  442 fps= 17 q=0.0 size=      40kB time=00:00:15.32 bitrate=  21.6kbits/s speed=0.607x    frame=  451 fps= 18 q=0.0 size=      41kB time=00:00:15.69 bitrate=  21.5kbits/s speed=0.609x    frame=  460 fps= 18 q=0.0 size=      42kB time=00:00:16.04 bitrate=  21.6kbits/s speed=0.611x    frame=  468 fps= 17 q=0.0 size=      43kB time=00:00:16.36 bitrate=  21.6kbits/s speed=0.611x    frame=  476 fps= 17 q=0.0 size=      44kB time=00:00:16.68 bitrate=  21.5kbits/s speed=0.611x    frame=  483 fps= 17 q=0.0 size=      45kB time=00:00:16.97 bitrate=  21.5kbits/s speed=0.611x    frame=  492 fps= 17 q=0.0 size=      45kB time=00:00:17.32 bitrate=  21.5kbits/s speed=0.612x    frame=  502 fps= 17 q=0.0 size=      46kB time=00:00:17.74 bitrate=  21.5kbits/s speed=0.616x    frame=  510 fps= 17 q=0.0 size=      47kB time=00:00:18.04 bitrate=  21.5kbits/s speed=0.615x    frame=  518 fps= 17 q=0.0 size=      48kB time=00:00:18.36 bitrate=  21.5kbits/s speed=0.616x    frame=  528 fps= 17 q=0.0 size=      49kB time=00:00:18.76 bitrate=  21.5kbits/s speed=0.619x    frame=  538 fps= 17 q=0.0 size=      50kB time=00:00:19.16 bitrate=  21.5kbits/s speed=0.621x    frame=  547 fps= 17 q=0.0 size=      51kB time=00:00:19.52 bitrate=  21.5kbits/s speed=0.623x    frame=  557 fps= 17 q=0.0 size=      52kB time=00:00:19.92 bitrate=  21.4kbits/s speed=0.625x    frame=  566 fps= 17 q=0.0 size=      53kB time=00:00:20.29 bitrate=  21.5kbits/s speed=0.627x    frame=  575 fps= 17 q=0.0 size=      54kB time=00:00:20.64 bitrate=  21.5kbits/s speed=0.628x    frame=  585 fps= 18 q=0.0 size=      55kB time=00:00:21.04 bitrate=  21.4kbits/s speed=0.631x    frame=  593 fps= 18 q=0.0 size=      56kB time=00:00:21.36 bitrate=  21.4kbits/s speed=0.631x    frame=  602 fps= 18 q=0.0 size=      57kB time=00:00:21.72 bitrate=  21.4kbits/s speed=0.632x    frame=  609 fps= 17 q=0.0 size=      58kB time=00:00:22.01 bitrate=  21.5kbits/s speed=0.631x    frame=  616 fps= 17 q=0.0 size=      58kB time=00:00:22.29 bitrate=  21.5kbits/s speed=0.63x    frame=  624 fps= 17 q=0.0 size=      59kB time=00:00:22.61 bitrate=  21.4kbits/s speed=0.63x    frame=  632 fps= 17 q=0.0 size=      60kB time=00:00:22.94 bitrate=  21.4kbits/s speed=0.63x    frame=  640 fps= 17 q=0.0 size=      61kB time=00:00:23.24 bitrate=  21.4kbits/s speed=0.63x    frame=  649 fps= 17 q=0.0 size=      62kB time=00:00:23.61 bitrate=  21.4kbits/s speed=0.631x    frame=  657 fps= 17 q=0.0 size=      63kB time=00:00:23.94 bitrate=  21.4kbits/s speed=0.632x    frame=  665 fps= 17 q=0.0 size=      63kB time=00:00:24.24 bitrate=  21.4kbits/s speed=0.631x    frame=  673 fps= 17 q=0.0 size=      64kB time=00:00:24.56 bitrate=  21.4kbits/s speed=0.631x    frame=  681 fps= 17 q=0.0 size=      65kB time=00:00:24.89 bitrate=  21.4kbits/s speed=0.631x    frame=  689 fps= 17 q=0.0 size=      66kB time=00:00:25.21 bitrate=  21.4kbits/s speed=0.632x    frame=  699 fps= 17 q=0.0 size=      67kB time=00:00:25.60 bitrate=  21.3kbits/s speed=0.633x    frame=  708 fps= 17 q=0.0 size=      68kB time=00:00:25.96 bitrate=  21.4kbits/s speed=0.634x    frame=  717 fps= 17 q=0.0 size=      69kB time=00:00:26.33 bitrate=  21.4kbits/s speed=0.636x    frame=  727 fps= 17 q=0.0 size=      70kB time=00:00:26.72 bitrate=  21.4kbits/s speed=0.637x    frame=  735 fps= 17 q=0.0 size=      71kB time=00:00:27.05 bitrate=  21.4kbits/s speed=0.637x    frame=  744 fps= 17 q=0.0 size=      71kB time=00:00:27.40 bitrate=  21.3kbits/s speed=0.638x    frame=  753 fps= 17 q=0.0 size=      72kB time=00:00:27.77 bitrate=  21.3kbits/s speed=0.639x    frame=  760 fps= 17 q=0.0 size=      73kB time=00:00:28.05 bitrate=  21.4kbits/s speed=0.638x    frame=  767 fps= 17 q=0.0 size=      74kB time=00:00:28.32 bitrate=  21.4kbits/s speed=0.637x    frame=  777 fps= 17 q=0.0 size=      75kB time=00:00:28.72 bitrate=  21.3kbits/s speed=0.639x    frame=  785 fps= 17 q=0.0 size=      76kB time=00:00:29.04 bitrate=  21.3kbits/s speed=0.639x    frame=  793 fps= 17 q=0.0 size=      76kB time=00:00:29.37 bitrate=  21.3kbits/s speed=0.639x    frame=  800 fps= 17 q=0.0 size=      77kB time=00:00:29.65 bitrate=  21.3kbits/s speed=0.638x    frame=  808 fps= 17 q=0.0 size=      78kB time=00:00:29.97 bitrate=  21.4kbits/s speed=0.638x    frame=  817 fps= 17 q=0.0 size=      79kB time=00:00:30.32 bitrate=  21.3kbits/s speed=0.639x    frame=  824 fps= 17 q=0.0 size=      80kB time=00:00:30.60 bitrate=  21.3kbits/s speed=0.638x    frame=  831 fps= 17 q=0.0 size=      80kB time=00:00:30.88 bitrate=  21.3kbits/s speed=0.637x    frame=  838 fps= 17 q=0.0 size=      81kB time=00:00:31.16 bitrate=  21.3kbits/s speed=0.636x    frame=  846 fps= 17 q=0.0 size=      82kB time=00:00:31.48 bitrate=  21.3kbits/s speed=0.636x    frame=  853 fps= 17 q=0.0 size=      83kB time=00:00:31.76 bitrate=  21.3kbits/s speed=0.635x    frame=  860 fps= 17 q=0.0 size=      83kB time=00:00:32.04 bitrate=  21.3kbits/s speed=0.634x    frame=  867 fps= 17 q=0.0 size=      84kB time=00:00:32.32 bitrate=  21.3kbits/s speed=0.634x    frame=  875 fps= 17 q=0.0 size=      85kB time=00:00:32.64 bitrate=  21.3kbits/s speed=0.634x    frame=  883 fps= 17 q=0.0 size=      86kB time=00:00:32.97 bitrate=  21.3kbits/s speed=0.634x    frame=  890 fps= 17 q=0.0 size=      86kB time=00:00:33.25 bitrate=  21.3kbits/s speed=0.633x    frame=  898 fps= 17 q=0.0 size=      87kB time=00:00:33.56 bitrate=  21.3kbits/s speed=0.633x    frame=  905 fps= 17 q=0.0 size=      88kB time=00:00:33.85 bitrate=  21.3kbits/s speed=0.632x    frame=  912 fps= 17 q=0.0 size=      89kB time=00:00:34.13 bitrate=  21.3kbits/s speed=0.632x    frame=  921 fps= 17 q=0.0 size=      90kB time=00:00:34.48 bitrate=  21.3kbits/s speed=0.632x    frame=  929 fps= 17 q=0.0 size=      90kB time=00:00:34.80 bitrate=  21.3kbits/s speed=0.632x    frame=  939 fps= 17 q=0.0 size=      91kB time=00:00:35.20 bitrate=  21.3kbits/s speed=0.634x    frame=  948 fps= 17 q=0.0 size=      92kB time=00:00:35.57 bitrate=  21.3kbits/s speed=0.635x    frame=  958 fps= 17 q=0.0 size=      93kB time=00:00:35.96 bitrate=  21.3kbits/s speed=0.636x    frame=  967 fps= 17 q=0.0 size=      94kB time=00:00:36.32 bitrate=  21.3kbits/s speed=0.636x    frame=  975 fps= 17 q=0.0 size=      95kB time=00:00:36.64 bitrate=  21.3kbits/s speed=0.636x    frame=  984 fps= 17 q=0.0 size=      96kB time=00:00:37.01 bitrate=  21.3kbits/s speed=0.637x    frame=  993 fps= 17 q=0.0 size=      97kB time=00:00:37.36 bitrate=  21.3kbits/s speed=0.638x    frame= 1002 fps= 17 q=0.0 size=      98kB time=00:00:37.73 bitrate=  21.3kbits/s speed=0.639x    frame= 1011 fps= 17 q=0.0 size=      99kB time=00:00:38.08 bitrate=  21.3kbits/s speed=0.639x    frame= 1020 fps= 17 q=0.0 size=     100kB time=00:00:38.45 bitrate=  21.3kbits/s speed=0.64x    frame= 1029 fps= 17 q=0.0 size=     101kB time=00:00:38.80 bitrate=  21.3kbits/s speed=0.64x    frame= 1037 fps= 17 q=0.0 size=     102kB time=00:00:39.12 bitrate=  21.3kbits/s speed=0.64x    frame= 1046 fps= 17 q=0.0 size=     102kB time=00:00:39.49 bitrate=  21.2kbits/s speed=0.641x    frame= 1055 fps= 17 q=0.0 size=     103kB time=00:00:39.84 bitrate=  21.2kbits/s speed=0.642x    frame= 1064 fps= 17 q=0.0 size=     104kB time=00:00:40.21 bitrate=  21.3kbits/s speed=0.642x    frame= 1074 fps= 17 q=0.0 size=     105kB time=00:00:40.61 bitrate=  21.3kbits/s speed=0.643x    frame= 1083 fps= 17 q=0.0 size=     106kB time=00:00:40.96 bitrate=  21.3kbits/s speed=0.644x    frame= 1091 fps= 17 q=0.0 size=     107kB time=00:00:41.28 bitrate=  21.2kbits/s speed=0.644x    frame= 1101 fps= 17 q=0.0 size=     108kB time=00:00:41.68 bitrate=  21.2kbits/s speed=0.645x    frame= 1111 fps= 17 q=0.0 size=     109kB time=00:00:42.09 bitrate=  21.3kbits/s speed=0.646x    frame= 1120 fps= 17 q=0.0 size=     110kB time=00:00:42.44 bitrate=  21.3kbits/s speed=0.647x    frame= 1127 fps= 17 q=0.0 size=     111kB time=00:00:42.72 bitrate=  21.3kbits/s speed=0.646x    frame= 1136 fps= 17 q=0.0 size=     112kB time=00:00:43.08 bitrate=  21.2kbits/s speed=0.646x    frame= 1144 fps= 17 q=0.0 size=     112kB time=00:00:43.40 bitrate=  21.2kbits/s speed=0.646x    frame= 1152 fps= 17 q=0.0 size=     113kB time=00:00:43.72 bitrate=  21.2kbits/s speed=0.646x    frame= 1162 fps= 17 q=0.0 size=     114kB time=00:00:44.12 bitrate=  21.2kbits/s speed=0.647x    frame= 1171 fps= 17 q=0.0 size=     115kB time=00:00:44.48 bitrate=  21.2kbits/s speed=0.648x    frame= 1181 fps= 17 q=0.0 size=     116kB time=00:00:44.88 bitrate=  21.2kbits/s speed=0.649x    frame= 1190 fps= 17 q=0.0 size=     117kB time=00:00:45.25 bitrate=  21.2kbits/s speed=0.649x    frame= 1200 fps= 17 q=0.0 size=     118kB time=00:00:45.64 bitrate=  21.2kbits/s speed=0.65x    frame= 1208 fps= 17 q=0.0 size=     119kB time=00:00:45.97 bitrate=  21.2kbits/s speed=0.65x    frame= 1216 fps= 17 q=0.0 size=     120kB time=00:00:46.30 bitrate=  21.2kbits/s speed=0.65x    frame= 1224 fps= 17 q=0.0 size=     121kB time=00:00:46.60 bitrate=  21.2kbits/s speed=0.65x    frame= 1234 fps= 17 q=0.0 size=     122kB time=00:00:47.00 bitrate=  21.2kbits/s speed=0.651x    frame= 1243 fps= 17 q=0.0 size=     123kB time=00:00:47.36 bitrate=  21.2kbits/s speed=0.652x    frame= 1251 fps= 17 q=0.0 size=     123kB time=00:00:47.69 bitrate=  21.2kbits/s speed=0.651x    frame= 1261 fps= 17 q=0.0 size=     125kB time=00:00:48.08 bitrate=  21.2kbits/s speed=0.652x    frame= 1270 fps= 17 q=0.0 size=     126kB time=00:00:48.46 bitrate=  21.2kbits/s speed=0.653x    frame= 1278 fps= 17 q=0.0 size=     126kB time=00:00:48.76 bitrate=  21.2kbits/s speed=0.653x    frame= 1286 fps= 17 q=0.0 size=     127kB time=00:00:49.08 bitrate=  21.2kbits/s speed=0.653x    frame= 1295 fps= 17 q=0.0 size=     128kB time=00:00:49.45 bitrate=  21.2kbits/s speed=0.653x    frame= 1304 fps= 17 q=0.0 size=     129kB time=00:00:49.80 bitrate=  21.2kbits/s speed=0.653x    frame= 1312 fps= 17 q=0.0 size=     130kB time=00:00:50.13 bitrate=  21.2kbits/s speed=0.653x    frame= 1320 fps= 17 q=0.0 size=     131kB time=00:00:50.45 bitrate=  21.2kbits/s speed=0.653x    frame= 1328 fps= 17 q=0.0 size=     131kB time=00:00:50.78 bitrate=  21.2kbits/s speed=0.653x    frame= 1337 fps= 17 q=0.0 size=     132kB time=00:00:51.13 bitrate=  21.2kbits/s speed=0.653x    frame= 1346 fps= 17 q=0.0 size=     133kB time=00:00:51.50 bitrate=  21.2kbits/s speed=0.654x    frame= 1356 fps= 17 q=0.0 size=     134kB time=00:00:51.88 bitrate=  21.2kbits/s speed=0.655x    frame= 1365 fps= 17 q=0.0 size=     135kB time=00:00:52.24 bitrate=  21.2kbits/s speed=0.655x    frame= 1374 fps= 17 q=0.0 size=     136kB time=00:00:52.61 bitrate=  21.2kbits/s speed=0.656x    frame= 1383 fps= 17 q=0.0 size=     137kB time=00:00:52.96 bitrate=  21.2kbits/s speed=0.656x    frame= 1392 fps= 17 q=0.0 size=     138kB time=00:00:53.33 bitrate=  21.2kbits/s speed=0.656x    frame= 1400 fps= 17 q=0.0 size=     139kB time=00:00:53.66 bitrate=  21.2kbits/s speed=0.656x    frame= 1410 fps= 17 q=0.0 size=     140kB time=00:00:54.04 bitrate=  21.2kbits/s speed=0.657x    frame= 1419 fps= 17 q=0.0 size=     141kB time=00:00:54.40 bitrate=  21.2kbits/s speed=0.657x    frame= 1428 fps= 17 q=0.0 size=     142kB time=00:00:54.77 bitrate=  21.2kbits/s speed=0.658x    frame= 1438 fps= 17 q=0.0 size=     143kB time=00:00:55.17 bitrate=  21.2kbits/s speed=0.658x    frame= 1447 fps= 17 q=0.0 size=     144kB time=00:00:55.54 bitrate=  21.2kbits/s speed=0.659x    frame= 1456 fps= 17 q=0.0 size=     145kB time=00:00:55.89 bitrate=  21.2kbits/s speed=0.659x    frame= 1466 fps= 17 q=0.0 size=     146kB time=00:00:56.28 bitrate=  21.2kbits/s speed=0.66x    frame= 1475 fps= 17 q=0.0 size=     147kB time=00:00:56.65 bitrate=  21.2kbits/s speed=0.66x    frame= 1484 fps= 17 q=0.0 size=     148kB time=00:00:57.00 bitrate=  21.2kbits/s speed=0.66x    frame= 1494 fps= 17 q=0.0 size=     149kB time=00:00:57.40 bitrate=  21.2kbits/s speed=0.661x    frame= 1503 fps= 17 q=0.0 size=     150kB time=00:00:57.77 bitrate=  21.2kbits/s speed=0.661x    frame= 1513 fps= 17 q=0.0 size=     151kB time=00:00:58.16 bitrate=  21.2kbits/s speed=0.662x    frame= 1521 fps= 17 q=0.0 size=     152kB time=00:00:58.49 bitrate=  21.2kbits/s speed=0.662x    frame= 1529 fps= 17 q=0.0 size=     152kB time=00:00:58.81 bitrate=  21.2kbits/s speed=0.662x    frame= 1537 fps= 17 q=0.0 size=     153kB time=00:00:59.14 bitrate=  21.2kbits/s speed=0.662x    frame= 1547 fps= 17 q=0.0 size=     154kB time=00:00:59.52 bitrate=  21.2kbits/s speed=0.662x    frame= 1555 fps= 17 q=0.0 size=     155kB time=00:00:59.86 bitrate=  21.2kbits/s speed=0.662x    frame= 1564 fps= 17 q=0.0 size=     156kB time=00:01:00.20 bitrate=  21.2kbits/s speed=0.663x    frame= 1573 fps= 17 q=0.0 size=     157kB time=00:01:00.58 bitrate=  21.2kbits/s speed=0.663x    frame= 1582 fps= 17 q=0.0 size=     158kB time=00:01:00.92 bitrate=  21.2kbits/s speed=0.663x    [flv @ 0x55944ffcdf80] Failed to update header with correct duration.
[flv @ 0x55944ffcdf80] Failed to update header with correct filesize.
frame= 1583 fps= 17 q=-1.0 Lsize=     162kB time=00:01:03.20 bitrate=  20.9kbits/s speed=0.687x    
video:71kB audio:16kB subtitle:0kB other streams:0kB global headers:0kB muxing overhead: 86.611183%
[libx264 @ 0x55944ffcee80] frame I:32    Avg QP: 0.25  size:   271
[libx264 @ 0x55944ffcee80] frame P:411   Avg QP: 0.06  size:    47
[libx264 @ 0x55944ffcee80] frame B:1140  Avg QP: 0.12  size:    39
[libx264 @ 0x55944ffcee80] consecutive B-frames:  4.0%  0.0%  0.0% 96.0%
[libx264 @ 0x55944ffcee80] mb I  I16..4: 99.9%  0.0%  0.1%
[libx264 @ 0x55944ffcee80] mb P  I16..4:  0.0%  0.0%  0.0%  P16..4:  0.0%  0.0%  0.0%  0.0%  0.0%    skip:100.0%
[libx264 @ 0x55944ffcee80] mb B  I16..4:  0.0%  0.0%  0.0%  B16..8:  0.0%  0.0%  0.0%  direct: 0.0%  skip:100.0%  L0:40.0% L1:60.0% BI: 0.0%
[libx264 @ 0x55944ffcee80] final ratefactor: -38.66
[libx264 @ 0x55944ffcee80] 8x8 transform intra:0.0% inter:0.0%
[libx264 @ 0x55944ffcee80] coded y,uvDC,uvAC intra: 0.0% 0.1% 0.1% inter: 0.0% 0.0% 0.0%
[libx264 @ 0x55944ffcee80] i16 v,h,dc,p: 98%  0%  2%  0%
[libx264 @ 0x55944ffcee80] i8 v,h,dc,ddl,ddr,vr,hd,vl,hu:  0%  0% 100%  0%  0%  0%  0%  0%  0%
[libx264 @ 0x55944ffcee80] i4 v,h,dc,ddl,ddr,vr,hd,vl,hu: 46% 24% 30%  0%  0%  0%  0%  0%  0%
[libx264 @ 0x55944ffcee80] i8c dc,h,v,p: 100%  0%  0%  0%
[libx264 @ 0x55944ffcee80] Weighted P-Frames: Y:0.0% UV:0.0%
[libx264 @ 0x55944ffcee80] kb/s:9.09
[aac @ 0x55944ffd0140] Qavg: 65536.000
Exiting normally, received signal 2.
